<svg width="351" height="226" viewBox="0 0 351 226" fill="none" xmlns="http://www.w3.org/2000/svg">
<path d="M179.826 124.284C193.845 120.669 203.062 112.468 200.412 105.967C197.761 99.4665 184.248 97.1271 170.228 100.742C156.209 104.357 146.992 112.558 149.642 119.058C152.293 125.559 165.806 127.899 179.826 124.284Z" stroke="#0C0C0B" stroke-width="2" stroke-miterlimit="10"/>
<path d="M200.39 106L341.599 69.6138" stroke="#0C0C0B" stroke-width="2" stroke-miterlimit="10"/>
<path d="M198.36 103.159L327.81 51.1629" stroke="#0C0C0B" stroke-width="2" stroke-miterlimit="10"/>
<path d="M194.597 100.942L303.587 36.866" stroke="#0C0C0B" stroke-width="2" stroke-miterlimit="10"/>
<path d="M189.568 99.5667L270.579 27.7241" stroke="#0C0C0B" stroke-width="2" stroke-miterlimit="10"/>
<path d="M183.563 99.0633L231.156 24.4087" stroke="#0C0C0B" stroke-width="2" stroke-miterlimit="10"/>
<path d="M176.967 99.475L187.846 27.0372" stroke="#0C0C0B" stroke-width="2" stroke-miterlimit="10"/>
<path d="M170.272 100.775L143.689 35.5385" stroke="#0C0C0B" stroke-width="2" stroke-miterlimit="10"/>
<path d="M163.874 102.925L101.592 49.2548" stroke="#0C0C0B" stroke-width="2" stroke-miterlimit="10"/>
<path d="M158.194 105.646L64.5873 67.2961" stroke="#0C0C0B" stroke-width="2" stroke-miterlimit="10"/>
<path d="M153.734 108.829L35.0579 88.4568" stroke="#0C0C0B" stroke-width="2" stroke-miterlimit="10"/>
<path d="M150.706 112.334L15.1237 111.255" stroke="#0C0C0B" stroke-width="2" stroke-miterlimit="10"/>
<path d="M149.248 115.769L6.03441 134.113" stroke="#0C0C0B" stroke-width="2" stroke-miterlimit="10"/>
<path d="M149.662 119.084L8.54992 155.481" stroke="#0C0C0B" stroke-width="2" stroke-miterlimit="10"/>
<path d="M151.799 121.855L22.3397 173.932" stroke="#0C0C0B" stroke-width="2" stroke-miterlimit="10"/>
<path d="M155.464 124.061L46.5622 188.229" stroke="#0C0C0B" stroke-width="2" stroke-miterlimit="10"/>
<path d="M160.494 125.437L79.4832 197.279" stroke="#0C0C0B" stroke-width="2" stroke-miterlimit="10"/>
<path d="M166.499 125.94L118.994 200.686" stroke="#0C0C0B" stroke-width="2" stroke-miterlimit="10"/>
<path d="M173.095 125.528L162.216 197.966" stroke="#0C0C0B" stroke-width="2" stroke-miterlimit="10"/>
<path d="M179.79 124.228L206.47 189.475" stroke="#0C0C0B" stroke-width="2" stroke-miterlimit="10"/>
<path d="M186.276 122.169L248.471 175.749" stroke="#0C0C0B" stroke-width="2" stroke-miterlimit="10"/>
<path d="M191.859 119.438L285.475 157.707" stroke="#0C0C0B" stroke-width="2" stroke-miterlimit="10"/>
<path d="M196.424 116.185L314.996 136.627" stroke="#0C0C0B" stroke-width="2" stroke-miterlimit="10"/>
<path d="M199.444 112.761L334.93 113.829" stroke="#0C0C0B" stroke-width="2" stroke-miterlimit="10"/>
<path d="M200.813 109.234L344.019 90.971" stroke="#0C0C0B" stroke-width="2" stroke-miterlimit="10"/>
</svg>
