<svg width="373" height="298" viewBox="0 0 373 298" fill="none" xmlns="http://www.w3.org/2000/svg">
<path d="M50.1292 289.329L163.753 76.738" stroke="#0C0C0B" stroke-width="2" stroke-miterlimit="10"/>
<path d="M49.2936 291.116L177.538 93.467" stroke="#0C0C0B" stroke-width="2" stroke-miterlimit="10"/>
<path d="M49.6747 290.904L192.315 108.725" stroke="#0C0C0B" stroke-width="2" stroke-miterlimit="10"/>
<path d="M49.8345 290.462L208.064 123.193" stroke="#0C0C0B" stroke-width="2" stroke-miterlimit="10"/>
<path d="M49.9054 290.848L225.701 138.122" stroke="#0C0C0B" stroke-width="2" stroke-miterlimit="10"/>
<path d="M50.2066 290.813L243.319 153.731" stroke="#0C0C0B" stroke-width="2" stroke-miterlimit="10"/>
<path d="M50.8369 290.77L263.718 168.186" stroke="#0C0C0B" stroke-width="2" stroke-miterlimit="10"/>
<path d="M52.3352 289.791L289.041 183.743" stroke="#0C0C0B" stroke-width="2" stroke-miterlimit="10"/>
<path d="M50.6306 290.644L315.395 199.322" stroke="#0C0C0B" stroke-width="2" stroke-miterlimit="10"/>
<path d="M360.953 211.76L47.7039 291.573L154.564 48.6277" stroke="#0C0C0B" stroke-width="2" stroke-miterlimit="10"/>
<path d="M343.351 209.907C380.935 220.282 374.496 192.193 328.763 147.26C283.029 102.326 215.576 57.3162 177.977 46.8731C140.378 36.43 146.832 64.5869 192.566 109.52C238.3 154.454 305.659 199.49 343.351 209.907Z" stroke="#0C0C0B" stroke-width="2" stroke-miterlimit="10"/>
</svg>
